<?xml version="1.0" standalone="no"?>
<!DOCTYPE svg PUBLIC "-//W3C//DTD SVG 20010904//EN"
 "http://www.w3.org/TR/2001/REC-SVG-20010904/DTD/svg10.dtd">
<svg version="1.0" xmlns="http://www.w3.org/2000/svg"
 width="149.000000pt" height="155.000000pt" viewBox="0 0 149.000000 155.000000"
 preserveAspectRatio="xMidYMid meet">

<g transform="translate(0.000000,155.000000) scale(0.100000,-0.100000)"
fill="#000000" stroke="none">
<path d="M605 1416 c-59 -18 -83 -33 -138 -85 -83 -77 -117 -173 -117 -326 0
-120 47 -153 100 -69 31 49 64 79 79 70 15 -10 31 -92 31 -163 1 -57 3 -65 13
-51 11 14 13 12 13 -17 0 -21 -4 -31 -10 -27 -6 3 -5 -2 3 -11 7 -9 26 -17 42
-17 24 0 29 -4 29 -24 0 -21 -9 -27 -69 -45 -37 -11 -96 -39 -130 -62 -56 -37
-75 -56 -141 -139 l-19 -25 -1 168 c0 175 8 213 47 235 14 8 11 20 -29 103
-25 52 -51 112 -58 134 -19 61 -26 61 -45 3 -10 -29 -37 -91 -60 -138 l-43
-86 29 -31 c29 -33 46 -103 35 -146 -3 -13 -17 -29 -31 -35 -14 -6 -33 -27
-42 -46 -18 -39 -18 -37 41 -226 24 -76 36 -135 36 -172 l0 -58 60 0 c56 0 60
1 60 24 0 18 7 25 31 30 20 4 58 32 109 82 88 85 78 89 100 -41 7 -38 14 -76
16 -82 3 -10 95 -13 420 -13 l417 0 -6 113 c-9 196 -81 358 -212 474 -69 62
-70 61 -105 -57 -12 -41 -23 -76 -25 -78 -2 -2 -27 10 -56 26 -30 17 -80 38
-111 48 -52 16 -58 21 -58 44 l0 27 80 -5 c104 -6 110 -1 110 93 0 64 -3 77
-26 104 -15 18 -38 32 -57 35 -111 17 -108 16 -105 39 3 20 9 22 88 25 52 2
87 8 92 15 13 20 9 106 -7 136 -18 35 -69 79 -101 87 -19 5 -24 13 -24 39 0
18 7 38 15 45 24 20 28 50 9 71 -15 17 -31 19 -128 18 -61 0 -129 -6 -151 -13z
m240 -22 c14 -6 14 -8 -1 -25 -9 -11 -21 -19 -26 -19 -10 0 -11 34 -1 43 8 8
8 8 28 1z m-155 -23 c0 -22 -29 -36 -43 -22 -15 15 0 41 23 41 13 0 20 -7 20
-19z m80 -1 c0 -13 -7 -20 -20 -20 -13 0 -20 7 -20 20 0 13 7 20 20 20 13 0
20 -7 20 -20z m-162 -22 c-2 -13 -11 -24 -21 -26 -22 -4 -35 27 -16 39 25 16
41 10 37 -13z m-72 -43 c3 -8 -1 -21 -9 -29 -13 -13 -17 -13 -31 3 -12 13 -13
20 -4 29 16 16 37 15 44 -3z m279 -20 c0 -18 -8 -20 -86 -25 -71 -4 -92 -10
-126 -32 -43 -29 -72 -79 -81 -140 -3 -24 -12 -43 -23 -49 -17 -9 -19 -5 -19
42 0 66 29 129 80 171 53 45 94 57 180 55 68 -2 75 -4 75 -22z m-335 -61 c0
-8 -10 -14 -25 -14 -28 0 -29 3 -14 31 8 16 13 18 25 8 8 -6 14 -18 14 -25z
m404 -8 c31 -13 66 -49 66 -68 0 -5 -83 -8 -185 -8 -102 0 -185 4 -185 8 0 15
54 59 85 70 45 16 180 14 219 -2z m-450 -42 c25 -10 19 -34 -9 -34 -27 0 -28
1 -19 24 7 18 7 18 28 10z m6 -93 c0 -22 -21 -33 -40 -21 -18 11 -4 40 20 40
13 0 20 -7 20 -19z m523 0 c6 -26 -9 -31 -98 -31 -84 0 -97 -10 -90 -70 5 -41
13 -46 86 -54 81 -10 99 -27 100 -99 1 -32 0 -59 -2 -61 -2 -2 -30 -6 -62 -8
-66 -5 -88 9 -113 72 -33 82 -116 73 -129 -14 -4 -25 -5 -49 -2 -53 3 -5 -7
-7 -24 -5 -24 3 -29 9 -29 31 -1 86 -11 171 -24 206 -8 22 -15 55 -16 73 l0
32 199 0 c188 0 199 -1 204 -19z m-528 -70 c6 -11 -25 -81 -37 -81 -10 0 -11
74 -1 83 9 10 31 9 38 -2z m320 -208 c11 -24 27 -43 35 -43 12 -1 11 -3 -2
-11 -11 -6 -18 -22 -18 -39 0 -28 -2 -30 -40 -30 -38 0 -40 1 -41 33 -3 55 0
109 5 124 10 26 41 9 61 -34z m-505 -364 l0 -270 -22 3 -23 3 -3 255 c-1 140
0 260 3 267 2 7 14 13 25 13 20 0 20 -5 20 -271z m963 173 c20 -27 50 -78 67
-114 l31 -66 -19 -39 c-27 -54 -44 -108 -51 -167 l-6 -51 -62 -3 -63 -3 0 103
c0 146 37 388 58 388 4 0 24 -22 45 -48z m-393 -36 l0 -64 -52 -4 c-29 -1 -70
-2 -90 0 l-38 3 0 65 0 64 90 0 90 0 0 -64z m-210 -17 l0 -50 -47 3 c-46 3
-48 4 -51 36 -3 30 0 34 39 52 24 10 47 16 51 14 4 -3 8 -28 8 -55z m313 39
c25 -9 28 -15 25 -47 -3 -35 -5 -36 -44 -39 l-42 -3 -3 51 c-4 57 -2 63 20 54
9 -3 29 -11 44 -16z m-753 -90 c-1 -79 -3 -90 -14 -76 -7 9 -19 42 -26 73 -12
50 -12 57 5 75 10 11 22 20 27 20 4 0 8 -42 8 -92z m304 20 c3 -13 10 -47 16
-77 l11 -55 -38 -39 c-155 -161 -173 -169 -173 -76 0 51 5 70 31 113 30 50
126 156 141 156 4 0 10 -10 12 -22z m545 8 c11 -13 10 -58 -5 -155 l-5 -34
-25 24 c-24 24 -24 25 -9 94 8 39 15 73 15 78 0 12 17 8 29 -7z m-93 -120
c-10 -86 -12 -88 -52 -61 -84 57 -189 60 -273 8 l-50 -31 -10 49 c-21 97 -38
89 190 89 l202 0 -7 -54z m82 -186 c-3 -55 -3 -55 -37 -58 -18 -2 -37 0 -41 5
-4 4 -1 43 8 86 l15 78 29 -28 c26 -25 29 -33 26 -83z m-173 29 c19 -19 37
-46 40 -61 l7 -28 -151 0 c-99 0 -151 4 -151 10 0 31 54 99 90 113 8 4 41 5
73 4 51 -3 62 -8 92 -38z"/>
</g>
</svg>
