<svg id="svg" version="1.1" xmlns="http://www.w3.org/2000/svg" xmlns:xlink="http://www.w3.org/1999/xlink" width="400" height="200" viewBox="0, 0, 400,200"><g id="svgg"><path id="path0" d="M121.000 99.200 L 121.000 118.600 126.200 118.600 L 131.400 118.600 131.400 115.296 L 131.400 111.993 132.696 110.696 C 134.066 109.327,134.200 109.236,134.200 109.676 C 134.200 109.828,134.560 110.323,135.000 110.776 C 135.440 111.230,135.800 111.680,135.800 111.776 C 135.800 111.873,136.160 112.323,136.600 112.776 C 137.040 113.230,137.400 113.680,137.400 113.776 C 137.400 113.873,137.760 114.323,138.200 114.776 C 138.640 115.230,139.000 115.680,139.000 115.776 C 139.000 115.873,139.338 116.303,139.750 116.731 C 140.162 117.160,140.628 117.756,140.784 118.055 L 141.068 118.600 152.634 118.600 L 164.200 118.600 164.200 104.400 L 164.200 90.200 159.000 90.200 L 153.800 90.200 153.800 103.800 C 153.800 111.280,153.751 117.400,153.691 117.400 C 153.507 117.400,152.600 116.430,152.600 116.233 C 152.600 116.131,152.240 115.677,151.800 115.224 C 151.360 114.770,151.000 114.320,151.000 114.224 C 151.000 114.127,150.640 113.677,150.200 113.224 C 149.760 112.770,149.400 112.310,149.400 112.200 C 149.400 112.090,149.040 111.630,148.600 111.176 C 148.160 110.723,147.800 110.264,147.800 110.156 C 147.800 110.049,147.530 109.708,147.200 109.400 C 146.870 109.092,146.600 108.751,146.600 108.644 C 146.600 108.536,146.240 108.077,145.800 107.624 C 145.360 107.170,145.000 106.710,145.000 106.600 C 145.000 106.490,144.640 106.030,144.200 105.576 C 143.760 105.123,143.400 104.664,143.400 104.556 C 143.400 104.449,143.153 104.119,142.850 103.825 C 141.565 102.574,141.540 102.648,144.147 100.047 C 145.441 98.755,146.995 97.118,147.600 96.408 C 148.205 95.699,149.667 94.150,150.850 92.966 C 153.840 89.971,154.184 90.200,146.697 90.200 L 140.393 90.200 136.000 94.600 C 133.584 97.020,131.560 99.000,131.503 99.000 C 131.446 99.000,131.400 94.680,131.400 89.400 L 131.400 79.800 126.200 79.800 L 121.000 79.800 121.000 99.200 M263.400 87.400 L 263.400 91.000 261.400 91.000 L 259.400 91.000 259.400 94.487 C 259.400 99.146,259.329 99.000,261.595 99.000 L 263.400 99.000 263.400 105.288 C 263.400 109.265,263.474 111.622,263.600 111.700 C 263.710 111.768,263.800 112.088,263.800 112.412 C 263.800 112.735,263.890 113.000,264.000 113.000 C 264.110 113.000,264.202 113.203,264.204 113.450 C 264.207 113.697,264.385 114.125,264.600 114.400 C 264.815 114.675,264.993 114.969,264.996 115.054 C 265.004 115.347,267.192 117.400,267.496 117.400 C 267.663 117.400,267.801 117.468,267.802 117.550 C 267.803 117.730,268.772 118.200,269.140 118.200 C 269.283 118.200,269.400 118.290,269.400 118.400 C 269.400 118.510,269.670 118.600,270.000 118.600 C 270.330 118.600,270.600 118.690,270.600 118.800 C 270.600 118.913,271.163 119.000,271.888 119.000 C 272.597 119.000,273.232 119.090,273.300 119.200 C 273.368 119.310,274.138 119.400,275.012 119.400 C 275.937 119.400,276.600 119.317,276.600 119.200 C 276.600 119.086,277.200 119.000,278.000 119.000 C 278.800 119.000,279.400 118.914,279.400 118.800 C 279.400 118.690,279.670 118.600,280.000 118.600 C 280.330 118.600,280.600 118.510,280.600 118.400 C 280.600 118.290,280.780 118.200,281.000 118.200 C 281.220 118.200,281.400 118.110,281.400 118.000 C 281.400 117.890,281.580 117.800,281.800 117.800 C 282.133 117.800,282.200 117.667,282.200 117.000 C 282.200 116.560,282.110 116.200,282.000 116.200 C 281.890 116.200,281.800 116.019,281.800 115.797 C 281.800 115.576,281.696 115.193,281.569 114.947 C 281.071 113.984,281.000 113.792,281.000 113.403 C 281.000 113.181,280.910 113.000,280.800 113.000 C 280.690 113.000,280.600 112.730,280.600 112.400 C 280.600 112.070,280.510 111.800,280.400 111.800 C 280.290 111.800,280.200 111.569,280.200 111.286 C 280.200 110.402,278.724 109.714,278.300 110.400 C 278.232 110.510,277.912 110.600,277.588 110.600 C 277.265 110.600,277.000 110.690,277.000 110.800 C 277.000 110.910,276.780 111.000,276.512 111.000 C 276.243 111.000,275.968 110.910,275.900 110.800 C 275.832 110.690,275.643 110.600,275.479 110.600 C 275.094 110.600,274.200 109.706,274.200 109.321 C 274.200 109.157,274.110 108.968,274.000 108.900 C 273.875 108.823,273.800 106.931,273.800 103.888 L 273.800 99.000 277.000 99.000 L 280.200 99.000 280.200 95.000 L 280.200 91.000 277.000 91.000 L 273.800 91.000 273.800 87.400 L 273.800 83.800 268.600 83.800 L 263.400 83.800 263.400 87.400 M185.500 89.600 C 185.432 89.710,184.662 89.800,183.788 89.800 C 182.863 89.800,182.200 89.883,182.200 90.000 C 182.200 90.110,181.930 90.200,181.600 90.200 C 181.270 90.200,181.000 90.290,181.000 90.400 C 181.000 90.510,180.730 90.600,180.400 90.600 C 180.070 90.600,179.800 90.690,179.800 90.800 C 179.800 90.910,179.640 91.000,179.444 91.000 C 179.248 91.000,178.959 91.180,178.800 91.400 C 178.641 91.620,178.352 91.800,178.156 91.800 C 177.960 91.800,177.800 91.890,177.800 92.000 C 177.800 92.110,177.710 92.200,177.600 92.200 C 177.490 92.200,177.400 91.750,177.400 91.200 L 177.400 90.200 172.400 90.200 L 167.400 90.200 167.400 104.400 L 167.400 118.600 172.600 118.600 L 177.800 118.600 177.800 111.012 C 177.800 106.169,177.872 103.379,178.000 103.300 C 178.110 103.232,178.200 102.867,178.200 102.488 C 178.200 102.110,178.290 101.800,178.400 101.800 C 178.510 101.800,178.600 101.663,178.600 101.495 C 178.600 100.854,180.818 99.000,181.585 99.000 C 181.800 99.000,182.032 98.910,182.100 98.800 C 182.168 98.690,182.578 98.600,183.012 98.600 C 183.445 98.600,183.800 98.690,183.800 98.800 C 183.800 98.910,184.037 99.000,184.326 99.000 C 184.923 99.000,186.600 100.529,186.600 101.074 C 186.600 101.253,186.690 101.400,186.800 101.400 C 186.913 101.400,187.000 101.963,187.000 102.688 C 187.000 103.397,187.090 104.032,187.200 104.100 C 187.327 104.179,187.400 106.835,187.400 111.412 L 187.400 118.600 192.600 118.600 L 197.800 118.600 197.800 109.012 C 197.800 102.835,197.729 99.380,197.600 99.300 C 197.490 99.232,197.400 98.777,197.400 98.288 C 197.400 97.800,197.310 97.400,197.200 97.400 C 197.090 97.400,197.000 97.130,197.000 96.800 C 197.000 96.470,196.910 96.200,196.800 96.200 C 196.690 96.200,196.600 96.083,196.600 95.940 C 196.600 95.572,196.130 94.603,195.950 94.602 C 195.868 94.601,195.800 94.458,195.800 94.285 C 195.800 93.901,193.265 91.400,192.877 91.400 C 192.725 91.400,192.600 91.310,192.600 91.200 C 192.600 91.090,192.420 91.000,192.200 91.000 C 191.980 91.000,191.800 90.910,191.800 90.800 C 191.800 90.690,191.620 90.600,191.400 90.600 C 191.180 90.600,191.000 90.510,191.000 90.400 C 191.000 90.290,190.735 90.200,190.412 90.200 C 190.088 90.200,189.768 90.110,189.700 90.000 C 189.632 89.890,188.912 89.800,188.100 89.800 C 187.288 89.800,186.568 89.710,186.500 89.600 C 186.432 89.490,186.207 89.400,186.000 89.400 C 185.793 89.400,185.568 89.490,185.500 89.600 " stroke="none" fill="#fcfcfc" fill-rule="evenodd"></path><path id="path1" d="M156.600 74.800 C 156.600 74.910,156.330 75.000,156.000 75.000 C 155.670 75.000,155.400 75.090,155.400 75.200 C 155.400 75.310,155.220 75.400,155.000 75.400 C 154.780 75.400,154.600 75.490,154.600 75.600 C 154.600 75.710,154.462 75.800,154.293 75.800 C 153.895 75.800,152.600 77.095,152.600 77.493 C 152.600 77.662,152.510 77.800,152.400 77.800 C 152.290 77.800,152.200 77.980,152.200 78.200 C 152.200 78.420,152.110 78.600,152.000 78.600 C 151.890 78.600,151.800 78.780,151.800 79.000 C 151.800 79.220,151.710 79.400,151.600 79.400 C 151.479 79.400,151.400 80.267,151.400 81.600 C 151.400 82.933,151.479 83.800,151.600 83.800 C 151.710 83.800,151.800 84.070,151.800 84.400 C 151.800 84.730,151.890 85.000,152.000 85.000 C 152.110 85.000,152.200 85.137,152.200 85.304 C 152.200 85.700,154.300 87.800,154.696 87.800 C 154.863 87.800,155.000 87.890,155.000 88.000 C 155.000 88.110,155.180 88.200,155.400 88.200 C 155.620 88.200,155.800 88.290,155.800 88.400 C 155.800 88.523,156.800 88.600,158.400 88.600 C 160.000 88.600,161.000 88.523,161.000 88.400 C 161.000 88.290,161.180 88.200,161.400 88.200 C 161.620 88.200,161.800 88.110,161.800 88.000 C 161.800 87.890,161.937 87.800,162.104 87.800 C 162.500 87.800,164.600 85.700,164.600 85.304 C 164.600 85.137,164.690 85.000,164.800 85.000 C 164.910 85.000,165.000 84.820,165.000 84.600 C 165.000 84.380,165.090 84.200,165.200 84.200 C 165.322 84.200,165.400 83.267,165.400 81.800 C 165.400 80.333,165.322 79.400,165.200 79.400 C 165.090 79.400,165.000 79.130,165.000 78.800 C 165.000 78.470,164.910 78.200,164.800 78.200 C 164.690 78.200,164.600 78.063,164.600 77.895 C 164.600 77.498,162.902 75.800,162.505 75.800 C 162.337 75.800,162.200 75.710,162.200 75.600 C 162.200 75.490,162.020 75.400,161.800 75.400 C 161.580 75.400,161.400 75.310,161.400 75.200 C 161.400 75.090,161.220 75.000,161.000 75.000 C 160.780 75.000,160.600 74.910,160.600 74.800 C 160.600 74.680,159.800 74.600,158.600 74.600 C 157.400 74.600,156.600 74.680,156.600 74.800 M244.900 89.600 C 244.832 89.710,244.017 89.800,243.088 89.800 C 242.096 89.800,241.400 89.882,241.400 90.000 C 241.400 90.110,241.040 90.200,240.600 90.200 C 240.160 90.200,239.800 90.290,239.800 90.400 C 239.800 90.510,239.580 90.600,239.312 90.600 C 239.043 90.600,238.768 90.690,238.700 90.800 C 238.632 90.910,238.402 91.000,238.188 91.000 C 237.975 91.000,237.800 91.090,237.800 91.200 C 237.800 91.310,237.620 91.400,237.400 91.400 C 237.180 91.400,237.000 91.475,237.000 91.566 C 237.000 91.658,236.753 91.860,236.450 92.015 C 236.148 92.170,235.754 92.455,235.577 92.649 C 235.399 92.842,235.157 93.000,235.040 93.000 C 234.744 93.000,232.600 95.170,232.600 95.469 C 232.600 95.602,232.420 95.841,232.200 96.000 C 231.980 96.159,231.800 96.448,231.800 96.644 C 231.800 96.840,231.710 97.000,231.600 97.000 C 231.490 97.000,231.400 97.180,231.400 97.400 C 231.400 97.620,231.310 97.800,231.200 97.800 C 231.090 97.800,231.000 97.980,231.000 98.200 C 231.000 98.420,230.910 98.600,230.800 98.600 C 230.690 98.600,230.600 98.870,230.600 99.200 C 230.600 99.530,230.510 99.800,230.400 99.800 C 230.290 99.800,230.200 100.155,230.200 100.588 C 230.200 101.022,230.110 101.432,230.000 101.500 C 229.883 101.572,229.800 102.731,229.800 104.300 C 229.800 105.869,229.883 107.028,230.000 107.100 C 230.395 107.344,230.238 108.600,229.812 108.600 C 229.598 108.600,229.368 108.510,229.300 108.400 C 229.232 108.290,228.957 108.200,228.688 108.200 C 228.420 108.200,228.200 108.110,228.200 108.000 C 228.200 107.890,228.020 107.800,227.800 107.800 C 227.580 107.800,227.400 107.710,227.400 107.600 C 227.400 107.490,227.220 107.400,227.000 107.400 C 226.780 107.400,226.600 107.310,226.600 107.200 C 226.600 107.090,226.420 107.000,226.200 107.000 C 225.980 107.000,225.800 106.910,225.800 106.800 C 225.800 106.690,225.580 106.600,225.312 106.600 C 225.043 106.600,224.768 106.510,224.700 106.400 C 224.632 106.290,224.402 106.200,224.188 106.200 C 223.975 106.200,223.800 106.110,223.800 106.000 C 223.800 105.890,223.569 105.800,223.286 105.800 C 222.772 105.800,222.200 106.202,222.200 106.562 C 222.200 106.857,219.770 109.264,219.150 109.584 C 218.847 109.740,218.600 109.942,218.600 110.034 C 218.600 110.125,218.330 110.200,218.000 110.200 C 217.670 110.200,217.400 110.290,217.400 110.400 C 217.400 110.510,217.180 110.600,216.912 110.600 C 216.643 110.600,216.368 110.690,216.300 110.800 C 216.232 110.910,215.462 111.000,214.588 111.000 C 213.663 111.000,213.000 110.917,213.000 110.800 C 213.000 110.690,212.820 110.600,212.600 110.600 C 212.380 110.600,212.200 110.510,212.200 110.400 C 212.200 110.290,212.059 110.200,211.886 110.200 C 211.482 110.200,211.000 109.718,211.000 109.314 C 211.000 109.114,211.178 109.000,211.488 109.000 C 211.757 109.000,212.032 108.910,212.100 108.800 C 212.168 108.690,212.398 108.600,212.612 108.600 C 212.825 108.600,213.000 108.510,213.000 108.400 C 213.000 108.290,213.220 108.200,213.488 108.200 C 213.757 108.200,214.032 108.110,214.100 108.000 C 214.168 107.890,214.398 107.800,214.612 107.800 C 214.825 107.800,215.000 107.710,215.000 107.600 C 215.000 107.490,215.220 107.400,215.488 107.400 C 215.757 107.400,216.032 107.310,216.100 107.200 C 216.168 107.090,216.398 107.000,216.612 107.000 C 216.825 107.000,217.000 106.910,217.000 106.800 C 217.000 106.690,217.220 106.600,217.488 106.600 C 217.757 106.600,218.032 106.510,218.100 106.400 C 218.168 106.290,218.398 106.200,218.612 106.200 C 218.825 106.200,219.000 106.110,219.000 106.000 C 219.000 105.890,219.220 105.800,219.488 105.800 C 219.757 105.800,220.032 105.710,220.100 105.600 C 220.168 105.490,220.398 105.400,220.612 105.400 C 220.825 105.400,221.000 105.310,221.000 105.200 C 221.000 105.090,221.220 105.000,221.488 105.000 C 221.757 105.000,222.032 104.910,222.100 104.800 C 222.168 104.690,222.398 104.600,222.612 104.600 C 222.825 104.600,223.000 104.510,223.000 104.400 C 223.000 104.290,223.220 104.200,223.488 104.200 C 223.757 104.200,224.032 104.110,224.100 104.000 C 224.168 103.890,224.398 103.800,224.612 103.800 C 224.825 103.800,225.000 103.710,225.000 103.600 C 225.000 103.490,225.220 103.400,225.488 103.400 C 225.757 103.400,226.032 103.310,226.100 103.200 C 226.168 103.090,226.398 103.000,226.612 103.000 C 226.825 103.000,227.000 102.910,227.000 102.800 C 227.000 102.690,227.220 102.600,227.488 102.600 C 227.757 102.600,228.032 102.510,228.100 102.400 C 228.168 102.290,228.398 102.200,228.612 102.200 C 228.944 102.200,229.000 102.057,229.000 101.200 C 229.000 100.650,228.910 100.200,228.800 100.200 C 228.690 100.200,228.600 99.930,228.600 99.600 C 228.600 99.270,228.510 99.000,228.400 99.000 C 228.290 99.000,228.200 98.820,228.200 98.600 C 228.200 98.380,228.110 98.200,228.000 98.200 C 227.890 98.200,227.800 98.020,227.800 97.800 C 227.800 97.580,227.710 97.400,227.600 97.400 C 227.490 97.400,227.400 97.220,227.400 97.000 C 227.400 96.780,227.310 96.600,227.200 96.600 C 227.090 96.600,227.000 96.440,227.000 96.244 C 227.000 96.048,226.820 95.759,226.600 95.600 C 226.380 95.441,226.200 95.209,226.200 95.083 C 226.200 94.752,224.086 92.600,223.761 92.600 C 223.611 92.600,223.359 92.420,223.200 92.200 C 223.041 91.980,222.793 91.800,222.647 91.800 C 222.502 91.800,222.190 91.620,221.954 91.400 C 221.718 91.180,221.317 91.000,221.062 91.000 C 220.808 91.000,220.600 90.910,220.600 90.800 C 220.600 90.690,220.420 90.600,220.200 90.600 C 219.980 90.600,219.800 90.510,219.800 90.400 C 219.800 90.290,219.440 90.200,219.000 90.200 C 218.560 90.200,218.200 90.110,218.200 90.000 C 218.200 89.875,217.000 89.800,215.000 89.800 C 213.000 89.800,211.800 89.875,211.800 90.000 C 211.800 90.110,211.440 90.200,211.000 90.200 C 210.560 90.200,210.200 90.290,210.200 90.400 C 210.200 90.510,209.930 90.600,209.600 90.600 C 209.270 90.600,209.000 90.690,209.000 90.800 C 209.000 90.910,208.780 91.000,208.512 91.000 C 208.243 91.000,207.968 91.090,207.900 91.200 C 207.832 91.310,207.602 91.400,207.388 91.400 C 207.175 91.400,207.000 91.490,207.000 91.600 C 207.000 91.710,206.840 91.800,206.644 91.800 C 206.448 91.800,206.159 91.980,206.000 92.200 C 205.841 92.420,205.552 92.600,205.356 92.600 C 205.160 92.600,205.000 92.675,205.000 92.766 C 205.000 92.858,204.754 93.060,204.454 93.216 C 203.745 93.585,201.000 96.316,201.000 96.653 C 201.000 96.795,200.820 97.041,200.600 97.200 C 200.380 97.359,200.200 97.648,200.200 97.844 C 200.200 98.040,200.110 98.200,200.000 98.200 C 199.890 98.200,199.800 98.380,199.800 98.600 C 199.800 98.820,199.710 99.000,199.600 99.000 C 199.490 99.000,199.400 99.180,199.400 99.400 C 199.400 99.620,199.310 99.800,199.200 99.800 C 199.090 99.800,199.000 100.065,199.000 100.388 C 199.000 100.712,198.910 101.032,198.800 101.100 C 198.690 101.168,198.600 101.663,198.600 102.200 C 198.600 102.737,198.510 103.232,198.400 103.300 C 198.290 103.368,198.200 104.178,198.200 105.100 C 198.200 106.022,198.290 106.832,198.400 106.900 C 198.510 106.968,198.600 107.468,198.600 108.012 C 198.600 108.555,198.690 109.000,198.800 109.000 C 198.910 109.000,199.000 109.270,199.000 109.600 C 199.000 109.930,199.090 110.200,199.200 110.200 C 199.310 110.200,199.400 110.367,199.400 110.572 C 199.400 111.028,200.602 113.400,200.833 113.400 C 200.925 113.400,201.000 113.541,201.000 113.712 C 201.000 114.088,204.324 117.400,204.702 117.400 C 204.847 117.400,204.997 117.468,205.033 117.550 C 205.129 117.766,206.786 118.600,207.119 118.600 C 207.274 118.600,207.400 118.690,207.400 118.800 C 207.400 118.910,207.670 119.000,208.000 119.000 C 208.330 119.000,208.600 119.090,208.600 119.200 C 208.600 119.310,209.050 119.400,209.600 119.400 C 210.150 119.400,210.600 119.490,210.600 119.600 C 210.600 119.722,211.529 119.800,212.988 119.800 C 214.365 119.800,215.429 119.715,215.500 119.600 C 215.568 119.490,216.063 119.400,216.600 119.400 C 217.137 119.400,217.632 119.310,217.700 119.200 C 217.768 119.090,218.088 119.000,218.412 119.000 C 218.735 119.000,219.000 118.910,219.000 118.800 C 219.000 118.690,219.270 118.600,219.600 118.600 C 219.930 118.600,220.200 118.510,220.200 118.400 C 220.200 118.290,220.420 118.200,220.688 118.200 C 220.957 118.200,221.232 118.110,221.300 118.000 C 221.368 117.890,221.598 117.800,221.812 117.800 C 222.025 117.800,222.200 117.710,222.200 117.600 C 222.200 117.490,222.380 117.400,222.600 117.400 C 222.820 117.400,223.000 117.310,223.000 117.200 C 223.000 117.090,223.160 117.000,223.356 117.000 C 223.552 117.000,223.841 116.820,224.000 116.600 C 224.159 116.380,224.429 116.200,224.600 116.200 C 224.771 116.200,225.041 116.020,225.200 115.800 C 225.359 115.580,225.591 115.400,225.717 115.400 C 226.048 115.400,228.200 113.286,228.200 112.961 C 228.200 112.811,228.380 112.559,228.600 112.400 C 228.820 112.241,229.000 111.993,229.000 111.847 C 229.000 111.702,229.180 111.390,229.400 111.154 C 229.620 110.918,229.800 110.517,229.800 110.262 C 229.800 110.008,229.890 109.800,230.000 109.800 C 230.110 109.800,230.200 109.620,230.200 109.400 C 230.200 109.180,230.290 109.000,230.400 109.000 C 230.510 109.000,230.600 109.270,230.600 109.600 C 230.600 109.930,230.690 110.200,230.800 110.200 C 230.910 110.200,231.000 110.380,231.000 110.600 C 231.000 110.820,231.090 111.000,231.200 111.000 C 231.310 111.000,231.400 111.180,231.400 111.400 C 231.400 111.620,231.490 111.800,231.600 111.800 C 231.710 111.800,231.800 111.922,231.800 112.070 C 231.800 112.219,232.070 112.623,232.400 112.969 C 232.730 113.314,233.000 113.678,233.000 113.778 C 233.000 114.025,234.390 115.400,234.640 115.400 C 234.750 115.400,235.092 115.670,235.400 116.000 C 235.708 116.330,236.104 116.600,236.280 116.600 C 236.456 116.600,236.600 116.690,236.600 116.800 C 236.600 116.910,236.780 117.000,237.000 117.000 C 237.220 117.000,237.400 117.090,237.400 117.200 C 237.400 117.310,237.580 117.400,237.800 117.400 C 238.020 117.400,238.200 117.490,238.200 117.600 C 238.200 117.710,238.380 117.800,238.600 117.800 C 238.820 117.800,239.000 117.890,239.000 118.000 C 239.000 118.110,239.270 118.200,239.600 118.200 C 239.930 118.200,240.200 118.290,240.200 118.400 C 240.200 118.510,240.560 118.600,241.000 118.600 C 241.440 118.600,241.800 118.690,241.800 118.800 C 241.800 118.914,242.396 119.000,243.188 119.000 C 243.952 119.000,244.632 119.090,244.700 119.200 C 244.768 119.310,245.578 119.400,246.500 119.400 C 247.422 119.400,248.232 119.310,248.300 119.200 C 248.368 119.090,249.093 119.000,249.912 119.000 C 250.771 119.000,251.400 118.915,251.400 118.800 C 251.400 118.690,251.760 118.600,252.200 118.600 C 252.640 118.600,253.000 118.510,253.000 118.400 C 253.000 118.290,253.270 118.200,253.600 118.200 C 253.930 118.200,254.200 118.110,254.200 118.000 C 254.200 117.890,254.380 117.800,254.600 117.800 C 254.820 117.800,255.000 117.710,255.000 117.600 C 255.000 117.490,255.180 117.400,255.400 117.400 C 255.620 117.400,255.800 117.310,255.800 117.200 C 255.800 117.090,255.925 117.000,256.077 117.000 C 256.406 117.000,259.000 114.527,259.000 114.213 C 259.000 113.791,253.620 108.600,253.182 108.600 C 252.950 108.600,252.508 108.870,252.200 109.200 C 251.892 109.530,251.496 109.800,251.320 109.800 C 251.144 109.800,251.000 109.890,251.000 110.000 C 251.000 110.110,250.820 110.200,250.600 110.200 C 250.380 110.200,250.200 110.290,250.200 110.400 C 250.200 110.510,249.890 110.600,249.512 110.600 C 249.133 110.600,248.768 110.690,248.700 110.800 C 248.632 110.910,247.867 111.000,247.000 111.000 C 246.133 111.000,245.368 110.910,245.300 110.800 C 245.232 110.690,244.867 110.600,244.488 110.600 C 244.110 110.600,243.800 110.510,243.800 110.400 C 243.800 110.290,243.640 110.200,243.444 110.200 C 243.248 110.200,242.959 110.020,242.800 109.800 C 242.641 109.580,242.402 109.400,242.267 109.400 C 242.133 109.400,241.863 109.130,241.668 108.800 C 241.473 108.470,241.254 108.200,241.180 108.200 C 241.107 108.200,241.000 108.020,240.942 107.800 C 240.838 107.404,240.936 107.400,250.719 107.400 C 260.367 107.400,260.600 107.391,260.600 107.012 C 260.600 106.798,260.690 106.568,260.800 106.500 C 260.913 106.430,261.000 105.465,261.000 104.288 C 261.000 103.029,260.921 102.200,260.800 102.200 C 260.690 102.200,260.600 101.710,260.600 101.112 C 260.600 100.513,260.510 99.968,260.400 99.900 C 260.290 99.832,260.200 99.647,260.200 99.488 C 260.200 99.330,260.020 99.020,259.800 98.800 C 259.552 98.552,259.400 98.133,259.400 97.700 C 259.400 97.315,259.310 97.000,259.200 97.000 C 259.090 97.000,259.000 96.820,259.000 96.600 C 259.000 96.380,258.925 96.200,258.834 96.200 C 258.742 96.200,258.540 95.953,258.384 95.650 C 258.012 94.929,255.240 92.200,254.880 92.200 C 254.726 92.200,254.600 92.110,254.600 92.000 C 254.600 91.890,254.461 91.800,254.292 91.800 C 254.122 91.800,253.790 91.620,253.554 91.400 C 253.318 91.180,252.917 91.000,252.662 91.000 C 252.408 91.000,252.200 90.910,252.200 90.800 C 252.200 90.690,252.025 90.600,251.812 90.600 C 251.598 90.600,251.368 90.510,251.300 90.400 C 251.232 90.290,250.867 90.200,250.488 90.200 C 250.110 90.200,249.800 90.110,249.800 90.000 C 249.800 89.882,249.104 89.800,248.112 89.800 C 247.183 89.800,246.368 89.710,246.300 89.600 C 246.232 89.490,245.917 89.400,245.600 89.400 C 245.283 89.400,244.968 89.490,244.900 89.600 M247.100 97.600 C 247.168 97.710,247.410 97.800,247.638 97.800 C 247.866 97.800,248.200 97.958,248.379 98.150 C 248.559 98.343,248.878 98.596,249.089 98.713 C 249.301 98.831,249.569 99.101,249.687 99.313 C 249.804 99.526,249.945 99.745,250.000 99.800 C 251.452 101.252,251.043 101.400,245.600 101.400 C 239.997 101.400,239.807 101.322,241.351 99.642 C 241.490 99.492,241.695 99.196,241.808 98.984 C 241.921 98.773,242.126 98.600,242.263 98.600 C 242.400 98.600,242.641 98.420,242.800 98.200 C 242.959 97.980,243.288 97.800,243.532 97.800 C 243.777 97.800,244.032 97.710,244.100 97.600 C 244.168 97.490,244.843 97.400,245.600 97.400 C 246.357 97.400,247.032 97.490,247.100 97.600 M215.000 98.000 C 215.000 98.110,215.180 98.200,215.400 98.200 C 215.620 98.200,215.800 98.290,215.800 98.400 C 215.800 98.510,215.944 98.600,216.120 98.600 C 216.513 98.600,217.641 99.772,217.487 100.020 C 217.426 100.119,217.202 100.200,216.988 100.200 C 216.775 100.200,216.600 100.290,216.600 100.400 C 216.600 100.510,216.380 100.600,216.112 100.600 C 215.843 100.600,215.568 100.690,215.500 100.800 C 215.432 100.910,215.202 101.000,214.988 101.000 C 214.775 101.000,214.600 101.090,214.600 101.200 C 214.600 101.310,214.380 101.400,214.112 101.400 C 213.843 101.400,213.568 101.490,213.500 101.600 C 213.432 101.710,213.202 101.800,212.988 101.800 C 212.775 101.800,212.600 101.890,212.600 102.000 C 212.600 102.110,212.380 102.200,212.112 102.200 C 211.843 102.200,211.568 102.290,211.500 102.400 C 211.432 102.510,211.202 102.600,210.988 102.600 C 210.775 102.600,210.600 102.690,210.600 102.800 C 210.600 102.910,210.380 103.000,210.112 103.000 C 209.843 103.000,209.568 103.090,209.500 103.200 C 209.432 103.310,209.202 103.400,208.988 103.400 C 208.775 103.400,208.600 103.490,208.600 103.600 C 208.600 103.710,208.510 103.800,208.400 103.800 C 208.289 103.800,208.200 103.267,208.200 102.600 C 208.200 101.933,208.289 101.400,208.400 101.400 C 208.510 101.400,208.600 101.266,208.600 101.102 C 208.600 100.478,210.478 98.600,211.102 98.600 C 211.266 98.600,211.400 98.510,211.400 98.400 C 211.400 98.290,211.575 98.200,211.788 98.200 C 212.002 98.200,212.232 98.110,212.300 98.000 C 212.368 97.890,213.003 97.800,213.712 97.800 C 214.437 97.800,215.000 97.887,215.000 98.000 " stroke="none" fill="#3bb4fc" fill-rule="evenodd"></path><path id="path2" d="" stroke="none" fill="#100d8fc" fill-rule="evenodd"></path><path id="path3" d="" stroke="none" fill="#100d8fc" fill-rule="evenodd"></path><path id="path4" d="" stroke="none" fill="#100d8fc" fill-rule="evenodd"></path></g></svg>