<?xml version="1.0" standalone="no"?>
<!DOCTYPE svg PUBLIC "-//W3C//DTD SVG 20010904//EN"
 "http://www.w3.org/TR/2001/REC-SVG-20010904/DTD/svg10.dtd">
<svg version="1.0" xmlns="http://www.w3.org/2000/svg"
 width="150.000000pt" height="150.000000pt" viewBox="0 0 150.000000 150.000000"
 preserveAspectRatio="xMidYMid meet">
<metadata>
Created by potrace 1.14, written by Peter Selinger 2001-2017
</metadata>
<g transform="translate(0.000000,150.000000) scale(0.100000,-0.100000)"
fill="#000000" stroke="none">
<path d="M617 1292 c-92 -33 -172 -118 -196 -207 -15 -59 -16 -222 -1 -240 19
-23 48 -18 67 13 25 40 55 72 68 72 16 0 35 -89 35 -165 0 -68 12 -85 58 -85
11 0 19 -6 18 -12 -3 -23 -17 -38 -35 -38 -57 0 -204 -102 -266 -185 -13 -18
-14 -5 -12 132 2 152 2 152 30 181 l29 30 -46 93 c-25 52 -48 109 -52 127 -10
47 -19 47 -34 -1 -6 -23 -32 -81 -55 -130 -42 -84 -43 -88 -26 -105 27 -26 39
-53 42 -98 3 -37 -1 -46 -34 -76 -46 -44 -47 -63 -6 -193 40 -127 41 -131 40
-187 -1 -27 2 -49 6 -49 5 -1 29 -3 56 -4 38 -1 47 2 47 16 0 10 11 20 27 24
14 3 57 36 94 72 79 76 74 78 95 -59 3 -27 9 -49 13 -49 3 -1 169 -2 369 -3
242 -1 362 2 363 9 0 5 0 44 0 85 -2 152 -56 284 -163 394 -42 44 -72 67 -81
63 -15 -6 -54 -112 -49 -134 3 -15 -18 -28 -27 -16 -8 12 -125 63 -144 63 -17
0 -30 16 -34 41 -2 14 7 16 67 11 48 -3 74 -1 85 8 21 18 20 123 -2 161 -20
33 -33 40 -88 46 -57 6 -65 10 -59 28 5 11 22 15 74 15 83 0 94 10 88 81 -6
62 -31 98 -86 124 -47 23 -52 44 -22 82 24 31 25 46 4 67 -22 23 -192 21 -257
-2z m86 -36 c3 -8 -1 -17 -9 -20 -26 -10 -32 -7 -27 14 6 23 28 27 36 6z m74
-1 c0 -8 -9 -15 -19 -15 -10 0 -18 7 -18 15 0 8 8 15 18 15 10 0 19 -7 19 -15z
m63 0 c-7 -8 -16 -15 -21 -15 -5 0 -6 7 -3 15 4 8 13 15 21 15 13 0 13 -3 3
-15z m-210 -12 c0 -5 -5 -15 -10 -23 -7 -11 -12 -12 -21 -3 -6 6 -8 16 -5 22
8 12 36 15 36 4z m-66 -48 c3 -9 -1 -18 -10 -22 -19 -7 -28 2 -21 22 8 19 23
19 31 0z m246 -15 c0 -14 -11 -17 -65 -18 -109 -1 -173 -53 -188 -149 -6 -39
-15 -55 -28 -48 -24 15 7 133 43 168 50 47 100 65 179 64 48 -1 59 -4 59 -17z
m-296 -38 c2 -4 1 -14 -4 -22 -7 -11 -12 -12 -21 -3 -6 6 -8 16 -5 22 8 13 23
14 30 3z m342 -21 c20 -1 74 -45 74 -61 0 -4 -72 -7 -160 -7 -88 0 -160 2
-160 6 0 11 60 56 83 61 19 5 89 6 163 1z m-366 -56 c0 -8 -6 -15 -14 -15 -17
0 -28 14 -19 24 12 12 33 6 33 -9z m441 -54 c17 -1 22 -31 5 -32 -6 0 -39 0
-73 0 -71 -1 -95 -19 -87 -68 7 -34 18 -44 51 -47 97 -10 115 -24 117 -94 2
-49 1 -51 -21 -47 -13 2 -26 1 -28 -3 -7 -11 -58 1 -77 18 -10 8 -20 24 -24
36 -26 82 -125 68 -128 -19 -1 -26 -5 -35 -18 -35 -15 0 -18 10 -19 53 -2 69
-4 81 -23 153 -21 79 -20 82 7 86 19 3 271 2 318 -1z m-446 -16 c0 -5 -9 -11
-21 -13 -13 -2 -21 3 -21 13 0 10 8 15 21 13 12 -2 21 -7 21 -13z m-10 -65 c7
-11 -11 -50 -23 -50 -6 0 -9 47 -3 58 3 6 20 1 26 -8z m285 -177 c16 -47 21
-103 9 -104 -5 -1 -18 -1 -29 -1 -11 0 -24 0 -28 1 -4 1 -7 29 -6 64 2 80 1
77 22 77 12 0 23 -13 32 -37z m-445 -316 c0 -126 -3 -231 -8 -234 -27 -16 -29
23 -27 395 0 64 2 73 17 70 16 -3 18 -23 18 -231z m900 60 l34 -69 -23 -47
c-22 -42 -35 -87 -42 -146 -1 -11 -3 -23 -3 -27 -1 -3 -25 -5 -53 -5 l-53 2 2
55 c3 109 14 225 27 290 4 19 9 44 11 55 2 11 4 22 5 25 2 14 64 -73 95 -133z
m-397 57 c3 -60 1 -61 -93 -60 l-60 1 -3 44 c-5 70 -2 72 80 69 l73 -3 3 -51z
m-190 -8 c0 -37 -4 -45 -22 -48 -38 -7 -54 2 -58 32 -4 28 10 42 44 45 3 0 10
3 14 8 16 16 23 5 22 -37z m279 25 c28 -17 31 -23 24 -48 -6 -24 -12 -27 -37
-24 -41 4 -44 8 -42 44 3 54 7 56 55 28z m-666 -13 c1 -7 0 -17 -1 -23 -3 -11
-3 -11 2 -72 4 -49 -4 -45 -23 12 -17 51 -17 56 -7 78 10 20 27 23 29 5z m285
-127 l6 -43 -77 -74 c-42 -41 -82 -74 -89 -74 -8 0 -13 16 -15 48 -1 39 6 59
34 107 20 33 54 78 77 100 l42 39 8 -29 c4 -17 11 -50 14 -74z m468 20 c-7
-90 -10 -97 -30 -80 -13 10 -14 24 -9 68 9 77 14 91 30 84 12 -4 14 -19 9 -72z
m-78 -3 c-2 -7 -6 -34 -10 -59 -7 -39 -11 -46 -27 -42 -10 3 -17 9 -14 13 8
14 -97 48 -136 45 -43 -4 -125 -39 -132 -57 -8 -22 -16 -4 -25 55 l-9 57 178
0 c136 0 177 -3 175 -12z m64 -192 l0 -52 -36 -1 c-32 -1 -35 2 -30 22 3 12 8
40 12 61 8 53 13 58 35 38 14 -13 19 -31 19 -68z m-140 8 c52 -60 47 -64 -100
-64 -148 0 -154 4 -97 66 58 64 140 63 197 -2z"/>
</g>
</svg>
