<?xml version="1.0" standalone="no"?>
<!DOCTYPE svg PUBLIC "-//W3C//DTD SVG 20010904//EN"
 "http://www.w3.org/TR/2001/REC-SVG-20010904/DTD/svg10.dtd">
<svg version="1.0" xmlns="http://www.w3.org/2000/svg"
 width="520.000000pt" height="160.000000pt" viewBox="0 0 520.000000 160.000000"
 preserveAspectRatio="xMidYMid meet">

<g transform="translate(0.000000,160.000000) scale(0.100000,-0.100000)"
fill="#000000" stroke="none">
<path d="M680 1421 c-98 -30 -193 -112 -233 -199 -17 -38 -22 -71 -25 -175 -4
-134 2 -157 39 -157 12 0 30 18 49 48 29 47 64 77 79 68 14 -9 31 -91 31 -150
0 -60 10 -71 28 -31 16 36 15 60 -8 146 -11 41 -20 86 -20 102 l0 27 203 -2
c194 -3 202 -4 202 -23 0 -18 -8 -20 -90 -25 l-90 -5 -3 -52 c-3 -58 -5 -57
89 -68 75 -8 94 -28 94 -103 l0 -57 -35 -3 c-19 -2 -40 -8 -47 -13 -7 -7 -14
-6 -18 1 -3 6 -10 8 -14 5 -13 -8 -59 44 -71 79 -23 72 -106 66 -124 -8 -6
-28 -5 -45 4 -59 10 -17 10 -19 -5 -13 -9 3 -25 6 -35 6 -13 0 -20 9 -23 28
-4 20 -4 18 -3 -8 1 -29 5 -36 25 -38 19 -3 21 -6 10 -13 -11 -7 -11 -9 4 -9
11 0 17 -8 17 -25 0 -21 -7 -27 -57 -41 -107 -31 -202 -97 -264 -183 l-39 -54
0 172 c0 175 3 195 42 237 19 21 19 22 -16 86 -20 35 -45 90 -55 121 -33 96
-37 99 -55 35 -9 -31 -36 -94 -60 -141 -44 -86 -44 -86 -24 -104 30 -26 48
-75 48 -127 0 -41 -3 -47 -30 -61 -17 -9 -38 -31 -47 -50 -16 -34 -15 -37 30
-187 34 -108 47 -170 47 -211 l0 -58 58 3 c49 3 57 6 60 24 2 15 13 24 34 28
19 4 58 33 109 83 44 42 79 73 79 69 0 -6 25 -134 35 -183 l5 -22 413 2 412 2
-1 110 c-1 89 -7 126 -28 191 -33 102 -104 213 -181 281 -70 63 -73 61 -106
-63 l-21 -82 -47 29 c-25 17 -76 39 -113 50 -63 19 -68 23 -68 49 l0 28 73 -5
c108 -8 117 -1 117 92 0 67 -3 78 -27 105 -21 24 -39 32 -73 36 -83 10 -92 13
-88 37 3 20 9 22 88 25 52 2 87 8 92 15 12 19 9 95 -6 130 -17 40 -51 72 -99
92 -28 11 -37 21 -37 39 0 13 7 29 16 36 30 26 36 50 19 76 -15 23 -19 24
-128 23 -61 0 -123 -4 -137 -8z m154 -37 c8 -21 -1 -34 -25 -34 -14 0 -19 7
-19 25 0 29 34 36 44 9z m79 10 c10 -10 -12 -44 -28 -44 -15 0 -21 31 -8 43 8
9 28 9 36 1z m-163 -24 c0 -24 -26 -38 -42 -22 -16 16 -2 42 22 42 13 0 20 -7
20 -20z m-80 -20 c0 -26 -25 -36 -46 -19 -14 12 -14 14 2 26 26 19 44 16 44
-7z m-70 -55 c0 -24 -24 -34 -44 -19 -19 13 -19 14 -1 34 14 15 21 17 32 9 7
-6 13 -17 13 -24z m278 -7 c-3 -21 -9 -23 -89 -28 -82 -5 -98 -10 -150 -52
-25 -20 -49 -73 -56 -123 -5 -41 -15 -52 -40 -42 -12 4 -2 91 16 133 21 46 82
102 132 120 19 7 69 13 112 13 76 1 78 0 75 -21z m-341 -71 c-4 -10 -13 -13
-26 -10 -24 6 -27 23 -9 41 16 16 43 -9 35 -31z m407 -1 c31 -13 66 -49 66
-68 0 -5 -83 -8 -185 -8 -102 0 -185 4 -185 8 0 13 53 60 80 71 38 15 185 13
224 -3z m-450 -42 c25 -10 19 -34 -9 -34 -24 0 -34 18 -18 33 8 8 8 8 27 1z
m4 -96 c-2 -15 -10 -23 -23 -23 -13 0 -21 8 -23 23 -3 18 1 22 23 22 22 0 26
-4 23 -22z m2 -68 c0 -16 -33 -80 -42 -80 -10 0 -11 74 -1 83 10 11 43 8 43
-3z m316 -209 c20 -38 23 -41 33 -24 9 16 10 15 11 -10 0 -16 -4 -26 -10 -22
-6 4 -10 -8 -10 -29 0 -36 0 -36 -45 -36 -50 0 -49 -2 -48 102 1 81 34 91 69
19z m-506 -362 l0 -270 -22 3 -23 3 -3 255 c-1 140 0 260 3 267 2 7 14 13 25
13 20 0 20 -5 20 -271z m975 157 c25 -35 55 -87 66 -114 l21 -51 -26 -54 c-28
-60 -45 -125 -46 -174 l0 -33 -65 0 -65 0 0 103 c0 156 36 387 60 387 5 0 30
-29 55 -64z m-405 -20 l0 -63 -45 -6 c-25 -4 -65 -4 -90 0 l-45 6 0 63 0 64
90 0 90 0 0 -64z m-212 -15 l3 -52 -48 3 c-47 3 -48 4 -51 39 -3 33 0 37 35
51 21 9 43 15 48 14 6 -2 11 -26 13 -55z m315 37 c23 -9 27 -15 27 -49 l0 -39
-50 0 -50 0 0 48 c0 54 6 66 29 56 9 -3 28 -11 44 -16z m-753 -95 c-1 -90 -2
-96 -15 -73 -25 44 -39 124 -26 148 6 12 18 22 26 22 12 0 15 -18 15 -97z
m304 30 c3 -10 10 -47 17 -82 l12 -64 -84 -82 c-47 -45 -95 -84 -107 -87 -21
-6 -22 -3 -22 61 0 62 3 73 39 128 36 57 116 143 132 143 4 0 10 -8 13 -17z
m544 5 c8 -8 10 -35 5 -87 -7 -98 -13 -108 -41 -78 -24 25 -24 25 4 155 5 25
14 28 32 10z m-89 -115 c-18 -102 -12 -96 -71 -60 -46 29 -59 32 -128 32 -69
0 -82 -3 -127 -32 l-51 -31 -11 43 c-6 24 -11 55 -11 69 l0 26 204 0 203 0 -8
-47z m79 -193 c-3 -55 -3 -55 -37 -58 -44 -4 -52 5 -42 53 5 22 12 57 16 79
l6 38 30 -28 c27 -26 30 -34 27 -84z m-172 26 c25 -24 44 -53 44 -65 0 -20 -4
-21 -150 -21 -98 0 -150 4 -150 10 0 32 55 100 90 113 8 3 39 6 69 6 50 1 56
-2 97 -43z"/>
<path d="M1921 1291 c-70 -18 -111 -67 -111 -133 0 -59 38 -93 139 -126 89
-29 114 -49 95 -79 -20 -32 -100 -29 -167 5 l-58 29 -19 -38 -20 -38 28 -19
c40 -29 116 -52 169 -52 111 0 183 54 183 136 0 64 -41 105 -136 133 -80 24
-115 52 -98 79 6 9 23 18 38 20 22 3 99 -16 143 -34 7 -3 21 13 33 36 l21 41
-45 19 c-51 23 -146 33 -195 21z"/>
<path d="M2230 1065 l0 -225 55 0 55 0 0 64 0 63 79 5 c91 5 135 26 165 78 27
45 27 124 1 168 -34 57 -83 72 -228 72 l-127 0 0 -225z m240 130 c18 -10 31
-24 32 -38 5 -77 -15 -97 -99 -97 l-63 0 0 75 0 75 50 0 c28 0 64 -7 80 -15z"/>
<path d="M2811 1268 c-5 -13 -48 -112 -95 -222 -47 -109 -86 -200 -86 -202 0
-2 24 -4 54 -4 l53 0 17 45 18 45 98 0 c104 0 110 -2 127 -55 9 -28 13 -30 68
-33 52 -3 57 -1 51 15 -4 10 -46 111 -94 225 l-87 208 -58 0 c-50 0 -59 -3
-66 -22z m98 -168 c17 -43 31 -82 31 -85 0 -3 -31 -5 -69 -5 l-70 0 26 63 c14
34 29 72 34 85 5 12 11 22 13 22 3 0 18 -36 35 -80z"/>
<path d="M3180 1065 l0 -225 55 0 55 0 0 65 0 65 48 0 47 0 34 -65 33 -65 59
0 60 0 -15 28 c-8 15 -29 47 -46 72 -30 44 -30 45 -11 61 61 50 80 153 41 217
-34 56 -85 72 -232 72 l-128 0 0 -225z m259 121 c27 -25 28 -79 1 -106 -16
-16 -33 -20 -85 -20 l-65 0 0 76 0 76 64 -4 c45 -3 71 -10 85 -22z"/>
<path d="M3610 1245 l0 -45 65 0 65 0 0 -180 0 -180 55 0 55 0 0 180 0 180 70
0 70 0 0 45 0 45 -190 0 -190 0 0 -45z"/>
<path d="M4132 1148 c-33 -79 -76 -180 -96 -225 l-35 -83 53 0 c52 0 53 0 72
43 l19 42 102 3 101 3 17 -46 18 -45 53 0 c30 0 54 3 54 8 0 4 -41 105 -91
225 l-92 217 -57 0 -57 0 -61 -142z m156 -60 l30 -78 -69 0 c-38 0 -69 2 -69
5 0 21 64 165 70 158 5 -4 22 -43 38 -85z"/>
<path d="M4550 1065 l0 -225 50 0 49 0 3 142 3 142 105 -142 105 -141 48 -1
47 0 0 225 0 225 -50 0 -50 0 0 -135 c0 -74 -4 -135 -8 -135 -4 0 -53 61 -107
135 l-99 135 -48 0 -48 0 0 -225z"/>
<path d="M1921 621 c-70 -18 -111 -67 -111 -133 0 -59 38 -93 139 -126 89 -29
114 -49 95 -80 -20 -31 -101 -28 -167 7 l-57 30 -20 -39 -20 -39 28 -19 c40
-29 116 -52 169 -52 111 0 183 54 183 136 0 64 -41 105 -136 133 -80 24 -115
52 -98 79 6 9 23 18 38 20 22 3 99 -16 143 -34 7 -3 21 13 33 36 l21 41 -45
19 c-51 23 -146 33 -195 21z"/>
<path d="M2825 621 c-221 -57 -245 -351 -35 -439 66 -27 181 -6 247 46 l22 17
-28 34 c-27 33 -29 34 -52 17 -13 -9 -41 -21 -62 -27 -135 -36 -224 145 -116
236 42 34 112 35 162 1 l36 -25 32 36 c30 35 31 37 13 51 -58 44 -159 69 -219
53z"/>
<path d="M2230 395 l0 -225 180 0 180 0 0 45 0 45 -125 0 -125 0 0 45 0 44
108 3 107 3 3 43 3 42 -110 0 -111 0 0 50 0 50 120 0 120 0 0 40 0 40 -175 0
-175 0 0 -225z"/>
<path d="M2845 458 c-27 -15 -35 -28 -35 -59 0 -40 31 -72 70 -72 66 0 95 82
44 122 -30 24 -50 26 -79 9z"/>
</g>
</svg>
